<svg id="Layer_1" data-name="Layer 1" xmlns="http://www.w3.org/2000/svg" viewBox="0 0 333.6 287.5"><defs><style>.cls-1{fill:#fff;}.cls-2{fill:#7a499d;}.cls-3{fill:#231f20;}</style></defs><path class="cls-1" d="M146,182.38a89,89,0,0,0-9.55-11.95,21.1,21.1,0,0,0-1.85-1.63,8.13,8.13,0,0,1-1-12,65.49,65.49,0,0,0,5.67-7.11,34.94,34.94,0,0,0,6.27-20.39q0-9.66-5.57-19.69-5.4-10-12.92-14.91T107.29,88a168,168,0,0,0-25.43-1.93,140.06,140.06,0,0,0-49.77,8.64A69.42,69.42,0,0,0,7.91,109.66c-13.4,13-9.39,26.5,9.1,29l.83.1a8.12,8.12,0,0,0,5.24-1.21q7.65-4.86,16.39-10.29a121.48,121.48,0,0,1,20.1-10.14,57.36,57.36,0,0,1,20.89-3.92,51.56,51.56,0,0,1,24,6,7.4,7.4,0,0,1,4.34,6.92q0,4.74-4.08,10.78a39.57,39.57,0,0,1-8.4,9.37,38.44,38.44,0,0,1-12.37,5.54q-7.44,2-20.53,4.66a213.46,213.46,0,0,0-20.75,5l-.15,0a15.44,15.44,0,0,0-9.43,20.76,21.76,21.76,0,0,0,2.73,4.68,16.25,16.25,0,0,0,13.45,6.79,21.48,21.48,0,0,0,6.5-1.17,92.48,92.48,0,0,1,30.7-5.51q22.86,0,31.94,13.89a34,34,0,0,1,5.74,18.52,22.23,22.23,0,0,1-9.38,18.69,90.3,90.3,0,0,1-21.65,12.36,65.38,65.38,0,0,1-23.46,4A133.59,133.59,0,0,1,46.12,252a38.42,38.42,0,0,1-13.45-5.54c-4.16-2.71-7.63-6.86-13.31-11.8a2,2,0,0,0-.88-.37,5.77,5.77,0,0,0-1.29,0,.47.47,0,0,0-.17,0c-5,2.18-5.48,3.17-9.81,7.65C6,243.29,2.37,252.32,2.33,252.42a29.55,29.55,0,0,0-.49,16.82,6.24,6.24,0,0,0,2.8,3.39c1.33.69,2.69,1.32,4.07,1.92a217.92,217.92,0,0,0,22.53,7.91,121.48,121.48,0,0,0,35.51,5,121.31,121.31,0,0,0,38.87-6.16q18.38-6.15,30.82-17.11t16-24.72a100,100,0,0,0,3.63-25.2A53.12,53.12,0,0,0,146,182.38Z"/><path class="cls-2" d="M323.31,110.45a43.83,43.83,0,0,1,3.07,21.45,76,76,0,0,1-4.81,20.24,56.85,56.85,0,0,1-15.39,22.12A76.81,76.81,0,0,1,282.75,188a180.79,180.79,0,0,1-31.09,8.32,183.91,183.91,0,0,1-33.34,3.1q-38.55,0-61-17.75a14.92,14.92,0,0,1-5.75-12A23.39,23.39,0,0,1,154.4,159c.35-.69.73-1.37,1.12-2a13.17,13.17,0,0,1,14.76-6,68.84,68.84,0,0,1,8.49,2.91q9,3.72,17.84,7.29a59.75,59.75,0,0,0,17.61,4.28q14,.94,16.58.94,10.38,0,25.2-4.57a196.18,196.18,0,0,0,20.77-7.53A49.27,49.27,0,0,0,292.94,143a22.13,22.13,0,0,0,6-15.06,25.13,25.13,0,0,0-.47-5.78q-3.11-10.32-21.62-10.31a115.5,115.5,0,0,0-12.39.7q-6.54.7-15.88,1.93t-16.88,1.94q-7.53.7-14.15.7-5.75,0-13.45.62t-11.51.61a52.86,52.86,0,0,1-12.95-1.46q-2.64-.65-9.87-1.56a30.62,30.62,0,0,1-11.57-3.42q-4.35-2.52-9.73-9.67Q140,90.94,140,78.69A55,55,0,0,1,142,64.51a89.37,89.37,0,0,1,23.61-31.26Q180.35,20.92,203.44,11A135.25,135.25,0,0,1,227.7,2.7,132.48,132.48,0,0,1,253.13,0q15.35,0,25.31,1a81.28,81.28,0,0,1,19.83,4.65,100.06,100.06,0,0,1,18.53,9.45,9,9,0,0,1,4.24,7.6v.06A23.88,23.88,0,0,1,317.52,35Q314,41,309,43.18q-6.81,3.1-12,3.11a10.52,10.52,0,0,1-4.51-.88,18.08,18.08,0,0,1-4-2.67q-2.11-1.79-4-3.13a15.27,15.27,0,0,0-4.8-2.17,125.82,125.82,0,0,0-32.87-4.57,97.24,97.24,0,0,0-33.93,5.66Q197.65,44.18,188.65,52t-10.4,14a26.41,26.41,0,0,0,.93,6q.94,3.75,3.87,4.75Q197.23,82,218.56,82q9.49,0,28.39-1.43t28.74-1.44a108.46,108.46,0,0,1,24,2.4q8.55,3.81,13,8.82a44.1,44.1,0,0,1,7.38,12.1Q321.51,106.1,323.31,110.45Z"/><path class="cls-3" d="M273.24,23.83A3.56,3.56,0,0,1,269,24c-1-.57-1.78-1-2.27-1.32q-1.84,3.32-2.36,4.52Q262.24,30,260,29.69a4.55,4.55,0,0,1-1.27-.42,2.11,2.11,0,0,1-1-1,4.28,4.28,0,0,1-.36-1.46c-.05-.57-.1-1.08-.13-1.53a7.71,7.71,0,0,1,.66-1.77,15.84,15.84,0,0,1,1.25-1.62,32.4,32.4,0,0,0,2-2.64l-.08-.05a11.93,11.93,0,0,0-1.52-.61,10.58,10.58,0,0,1-1.69-.7,4.3,4.3,0,0,1-.93-.82,3.52,3.52,0,0,1,.13-3.1,5.67,5.67,0,0,1,3.34-2.49c.37-.19,1,0,1.92.47.56.32,1.43.89,2.62,1.71.13-.22.3-.53.53-.91s.39-.64.47-.8a3.34,3.34,0,0,0,.6-1.63,9.35,9.35,0,0,1,.76-1.91A3.36,3.36,0,0,1,268.81,7a7.81,7.81,0,0,1,2.26-.58,3.39,3.39,0,0,1,2.06.49,3,3,0,0,1,1.42,2.21,6.35,6.35,0,0,1-.57,3.22c-.44.64-.94,1.35-1.5,2.14a26.19,26.19,0,0,1-1.84,2.34c.62.34,1.5.79,2.67,1.35a6.11,6.11,0,0,1,1.25.83,1.72,1.72,0,0,1,.48,1.48,4.92,4.92,0,0,1-.64,1.95A5,5,0,0,1,273.24,23.83Z"/><path class="cls-3" d="M297.79,18.3a29.54,29.54,0,0,0-3,3.51q-1.5,2-2.65,3.93c-.77,1.26-1.89,3.2-3.38,5.82s-2.5,4.38-3,5.29l-.76,1.36c-.66,1.18-1.2,2.22-1.62,3.11s-.86,1.85-1.32,2.87-.78,1.71-1,2.1a3.89,3.89,0,0,1-1.41,1.56,4.86,4.86,0,0,1-2.29.43L276,47.57a4.28,4.28,0,0,1-1.61-1.35,2.16,2.16,0,0,1,.09-1.94q1.15-2.07,2.25-3.8c.74-1.15,1.64-2.52,2.72-4.12s2-3,2.86-4.35,1.7-2.79,2.64-4.45c.21-.38.59-1,1.15-2s1-1.66,1.26-2.17a11.85,11.85,0,0,0,1.54-3.67,2.55,2.55,0,0,0-1.16-.34,11,11,0,0,0-1.54.06,12,12,0,0,1-1.47.06,2.28,2.28,0,0,1-1.07-.32,3.63,3.63,0,0,1-.8-2.36,4.92,4.92,0,0,1,.43-2.91,4.08,4.08,0,0,1,.36-.46,14.14,14.14,0,0,1,3.13-1.05c.87-.17,2.34-.38,4.39-.65a32.08,32.08,0,0,0,4.88-.94,2.58,2.58,0,0,1,1.8.29,3.26,3.26,0,0,1,1.56,2.36,5,5,0,0,1-.67,3.46A6.58,6.58,0,0,1,297.79,18.3Z"/><path class="cls-3" d="M325.68,59.23c-1.49,2.66-3,4.39-4.55,5.17q-10.14,5-20.78-1a35.14,35.14,0,0,1-4-2.56q-3.06-2.31-4.51-3.56a13.27,13.27,0,0,1-2.58-3.13,9.52,9.52,0,0,1-1.3-4.32,12.21,12.21,0,0,1,1.4-7.16,15.47,15.47,0,0,1,2-2.76,10.57,10.57,0,0,1,3-2.41,9.65,9.65,0,0,1,3.18-1c1.12-.14,2.63-.24,4.55-.29a8.67,8.67,0,0,1,1-6.68,13.3,13.3,0,0,1,3.35-3.86,14.61,14.61,0,0,1,5.71-3,13.22,13.22,0,0,1,5.7-.13,26.15,26.15,0,0,1,6.1,2.14c.42.18,1,.49,1.81.93a18.08,18.08,0,0,1,5.67,4.7,10.87,10.87,0,0,1,2.15,6.41,9.65,9.65,0,0,1-1.17,5.08A11,11,0,0,1,329,45.57a27.38,27.38,0,0,1-4.75,2.62c.19.51.55,1.32,1.08,2.41a21.64,21.64,0,0,1,1.17,2.85,6.52,6.52,0,0,1,.23,2.64A8.06,8.06,0,0,1,325.68,59.23Zm-5.23-3.33a3.22,3.22,0,0,0,.09-2.43,6.18,6.18,0,0,0-1.45-2.12c-.67-.66-1.33-1.3-2-1.91a16.31,16.31,0,0,0-4.1-3.06,80,80,0,0,0-7.46-3.4,14.64,14.64,0,0,1-2.72-.39,23.07,23.07,0,0,0-2.95-.45,4.82,4.82,0,0,0-2.32.46,4.54,4.54,0,0,0-2.06,2.06,6.29,6.29,0,0,0,.41,3.48,13,13,0,0,0,2.19,3.64,23.18,23.18,0,0,0,6.37,5.35,19,19,0,0,0,10.38,2.46A6.5,6.5,0,0,0,320.45,55.9Zm6.6-17a3.08,3.08,0,0,0-.17-2.2,8.37,8.37,0,0,0-1.73-2.59,11.92,11.92,0,0,0-2.95-2.27c-2.21-.95-4.12-1.69-5.73-2.2a11.62,11.62,0,0,0-4.58-.57,3.91,3.91,0,0,0-3.24,2.09,3,3,0,0,0,0,2.52,9.16,9.16,0,0,0,2,3.06,14,14,0,0,0,3.39,2.62,13.72,13.72,0,0,0,3.38,1.35c1.59.39,2.89.67,3.92.83a7.71,7.71,0,0,0,3.06-.12,3.53,3.53,0,0,0,2.31-1.79A5.42,5.42,0,0,0,327.05,38.86Z"/></svg>