<svg xmlns="http://www.w3.org/2000/svg" xmlns:xlink="http://www.w3.org/1999/xlink" width="1920" height="2078" viewBox="0 0 1920 2078">
  <defs>
    <filter id="Rectangle_4" x="1341.5" y="154.5" width="263" height="53" filterUnits="userSpaceOnUse">
      <feOffset input="SourceAlpha"/>
      <feGaussianBlur stdDeviation="1.5" result="blur"/>
      <feFlood flood-color="#307cff"/>
      <feComposite operator="in" in2="blur"/>
      <feComposite in="SourceGraphic"/>
    </filter>
    <clipPath id="clip-Web_1920_3">
      <rect width="1920" height="2078"/>
    </clipPath>
  </defs>
  <g id="Web_1920_3" data-name="Web 1920 – 3" clip-path="url(#clip-Web_1920_3)">
    <rect width="1920" height="2078" fill="#fff"/>
    <rect id="Rectangle_1" data-name="Rectangle 1" width="1920" height="232" fill="#fff"/>
    <g id="Group_12" data-name="Group 12">
      <path id="Path_3" data-name="Path 3" d="M38.6,111.528a23.53,23.53,0,0,0-2.525-3.159,5.578,5.578,0,0,0-.489-.431,2.149,2.149,0,0,1-.264-3.173,17.315,17.315,0,0,0,1.5-1.88,9.237,9.237,0,0,0,1.658-5.391A10.678,10.678,0,0,0,37,92.289a10.549,10.549,0,0,0-3.416-3.942,12.934,12.934,0,0,0-5.224-1.771,44.415,44.415,0,0,0-6.723-.51A37.029,37.029,0,0,0,8.483,88.35,18.353,18.353,0,0,0,2.091,92.3C-1.452,95.739-.392,99.308,4.5,99.969l.219.026a2.147,2.147,0,0,0,1.385-.32q2.023-1.285,4.333-2.72a32.117,32.117,0,0,1,5.314-2.681,15.165,15.165,0,0,1,5.523-1.036,13.632,13.632,0,0,1,6.345,1.586,1.956,1.956,0,0,1,1.147,1.83,5.278,5.278,0,0,1-1.079,2.85,10.461,10.461,0,0,1-2.221,2.477,10.163,10.163,0,0,1-3.27,1.465q-1.967.529-5.428,1.232Q13.992,105.2,11.28,106h-.04a4.082,4.082,0,0,0-2.493,5.489,5.753,5.753,0,0,0,.722,1.237,4.3,4.3,0,0,0,3.556,1.8,5.679,5.679,0,0,0,1.718-.309,24.45,24.45,0,0,1,8.116-1.457q6.044,0,8.444,3.672a8.989,8.989,0,0,1,1.518,4.9,5.877,5.877,0,0,1-2.48,4.941,23.874,23.874,0,0,1-5.724,3.268,17.285,17.285,0,0,1-6.2,1.058,35.32,35.32,0,0,1-6.224-.656,10.158,10.158,0,0,1-3.556-1.465,41.746,41.746,0,0,1-3.519-3.12.529.529,0,0,0-.233-.1,1.526,1.526,0,0,0-.341,0,.124.124,0,0,0-.045,0,6.221,6.221,0,0,0-2.594,2.023,21.878,21.878,0,0,0-1.29,2.771,7.812,7.812,0,0,0-.13,4.447,1.65,1.65,0,0,0,.74.9c.352.182.711.349,1.076.508a57.613,57.613,0,0,0,5.957,2.091,32.117,32.117,0,0,0,9.388,1.322,32.072,32.072,0,0,0,10.276-1.629,23.37,23.37,0,0,0,8.148-4.524,13.044,13.044,0,0,0,4.23-6.535,26.438,26.438,0,0,0,.96-6.662A14.044,14.044,0,0,0,38.6,111.528Z" transform="translate(747.342 -36.31)" fill="#231f20"/>
      <path id="Path_4" data-name="Path 4" d="M188.464,29.2a11.588,11.588,0,0,1,.812,5.671A20.093,20.093,0,0,1,188,40.223a15.03,15.03,0,0,1-4.069,5.848A20.307,20.307,0,0,1,177.74,49.7a47.8,47.8,0,0,1-8.22,2.2,48.622,48.622,0,0,1-8.814.82q-10.192,0-16.127-4.693a3.945,3.945,0,0,1-1.52-3.173,6.184,6.184,0,0,1,.748-2.821c.093-.182.193-.362.3-.529a3.482,3.482,0,0,1,3.9-1.586,18.2,18.2,0,0,1,2.245.769q2.379.983,4.717,1.927a15.8,15.8,0,0,0,4.656,1.132q3.7.249,4.383.249a23.292,23.292,0,0,0,6.662-1.208,51.863,51.863,0,0,0,5.491-1.991,13.026,13.026,0,0,0,4.275-2.993,5.851,5.851,0,0,0,1.586-3.982A6.643,6.643,0,0,0,181.9,32.3q-.822-2.728-5.716-2.726a30.537,30.537,0,0,0-3.276.185q-1.729.185-4.2.51t-4.463.513q-1.991.185-3.741.185-1.52,0-3.556.164t-3.043.161a13.975,13.975,0,0,1-3.424-.386q-.7-.172-2.609-.412a8.1,8.1,0,0,1-3.059-.9,9.607,9.607,0,0,1-2.572-2.557A10.245,10.245,0,0,1,140,20.8a14.541,14.541,0,0,1,.529-3.749,23.628,23.628,0,0,1,6.242-8.265,40.372,40.372,0,0,1,10-5.882A35.758,35.758,0,0,1,163.186.714,35.025,35.025,0,0,1,169.909,0q4.058,0,6.691.264a21.489,21.489,0,0,1,5.243,1.229,26.454,26.454,0,0,1,4.9,2.5A2.379,2.379,0,0,1,187.863,6v.016a6.313,6.313,0,0,1-.931,3.236,4.982,4.982,0,0,1-2.253,2.163,7.876,7.876,0,0,1-3.173.822,2.781,2.781,0,0,1-1.192-.233,4.78,4.78,0,0,1-1.058-.706q-.558-.473-1.058-.828a4.037,4.037,0,0,0-1.269-.574,33.265,33.265,0,0,0-8.69-1.208,25.709,25.709,0,0,0-8.97,1.5,20.664,20.664,0,0,0-6.409,3.561,7.807,7.807,0,0,0-2.75,3.7,6.982,6.982,0,0,0,.246,1.586,1.615,1.615,0,0,0,1.023,1.256,27.3,27.3,0,0,0,9.388,1.388q2.509,0,7.506-.378t7.6-.381a28.674,28.674,0,0,1,6.345.635,9.938,9.938,0,0,1,3.437,2.332,11.659,11.659,0,0,1,1.951,3.2Q187.988,28.051,188.464,29.2Z" transform="translate(644.355 27)" fill="#d1212a"/>
    </g>
    <text id="SSSMANGA" transform="translate(854.658 89)" fill="#151515" font-size="56" font-family="PalatinoLinotype-Roman, Palatino Linotype"><tspan x="0" y="0">SSSMANGA</tspan></text>
    <g id="night_shift" transform="translate(524.855 63.5)">
      <path id="Path_26" data-name="Path 26" d="M57.79,41.7H21.5a18,18,0,0,1-18-18h0a18,18,0,0,1,18-18H57.79a18,18,0,0,1,18,18h0A17.984,17.984,0,0,1,57.79,41.7Z" transform="translate(-3.5 -5.7)" fill="#464646" stroke="#464646" stroke-miterlimit="10" stroke-width="3"/>
      <circle id="Ellipse_10" data-name="Ellipse 10" cx="18" cy="18" r="18" transform="translate(0)" fill="#307cff" stroke="#307cff" stroke-miterlimit="10" stroke-width="3"/>
    </g>
    <g id="Component_3_2" data-name="Component 3 – 2" transform="translate(513 169)">
      <text id="FAN_ART" data-name="FAN ART" transform="translate(0 22)" font-size="22" font-family="Tahoma-Bold, Tahoma" font-weight="700"><tspan x="0" y="0">FAN ART</tspan></text>
    </g>
    <g id="Component_4_2" data-name="Component 4 – 2" transform="translate(666 169)">
      <text id="_READ_MANHWA" data-name=" READ MANHWA" transform="translate(0 22)" font-size="22" font-family="Tahoma-Bold, Tahoma" font-weight="700"><tspan x="0" y="0" xml:space="preserve"> READ MANHWA</tspan></text>
    </g>
    <g id="Component_5_2" data-name="Component 5 – 2" transform="translate(919 169)">
      <text id="_COMMUNITY" data-name=" COMMUNITY" transform="translate(0 22)" font-size="22" font-family="Tahoma-Bold, Tahoma" font-weight="700"><tspan x="0" y="0" xml:space="preserve"> COMMUNITY</tspan></text>
    </g>
    <g id="Group_6" data-name="Group 6" transform="translate(77.66 11)">
      <g transform="matrix(1, 0, 0, 1, -77.66, -11)" filter="url(#Rectangle_4)">
        <g id="Rectangle_4-2" data-name="Rectangle 4" transform="translate(1346 159)" fill="#fff" stroke="#707070" stroke-width="1">
          <rect width="254" height="44" rx="12" stroke="none"/>
          <rect x="0.5" y="0.5" width="253" height="43" rx="11.5" fill="none"/>
        </g>
      </g>
      <g id="Group_5" data-name="Group 5" transform="translate(1491.032 158.407)">
        <ellipse id="Ellipse_3" data-name="Ellipse 3" cx="6.164" cy="6.416" rx="6.164" ry="6.416" transform="translate(0 0)" fill="none" stroke="#000" stroke-miterlimit="10" stroke-width="3"/>
        <path id="Path_13" data-name="Path 13" d="M873.082,81.94a4.828,4.828,0,0,1,1.426-.062,3.957,3.957,0,0,1,1.065.264,3.2,3.2,0,0,1,.816.49,1.333,1.333,0,0,1,.5.777c.155.672-.043,1.663.245,2.218a2.064,2.064,0,0,0,1.636.967,8.842,8.842,0,0,1,1.092.245,3.941,3.941,0,0,1,.866.439,4.1,4.1,0,0,1,1.445,1.142,4.506,4.506,0,0,1,.688,1.818,6.216,6.216,0,0,1-.085,2.514l-.389.338a6.217,6.217,0,0,1-2.51-.186,4.591,4.591,0,0,1-1.733-.882,4.079,4.079,0,0,1-.979-1.554,3.858,3.858,0,0,1-.342-.913,8.147,8.147,0,0,1-.125-1.107,2.04,2.04,0,0,0-.777-1.733c-.524-.334-1.527-.256-2.176-.486a1.313,1.313,0,0,1-.715-.583,3.136,3.136,0,0,1-.388-.862A3.883,3.883,0,0,1,872.5,83.7a4.632,4.632,0,0,1,.214-1.414Z" transform="translate(-862.471 -70.291)"/>
      </g>
      <text id="Search_here..." data-name="Search here..." transform="translate(1281.339 175)" fill="rgba(0,0,0,0.35)" font-size="16" font-family="Tahoma-Bold, Tahoma" font-weight="700"><tspan x="0" y="0">Search here...</tspan></text>
    </g>
    <line id="Line_10" data-name="Line 10" x2="251" transform="translate(834.5 130)" fill="none" stroke="#84b1ff" stroke-width="7"/>
    <g id="Group_10" data-name="Group 10" transform="translate(3 48)">
      <rect id="Rectangle_43" data-name="Rectangle 43" width="137" height="40" transform="translate(1284)" fill="#307cff"/>
      <text id="Log_In" data-name="Log In" transform="translate(1319 29)" fill="#fff" font-size="21" font-family="Tahoma-Bold, Tahoma" font-weight="700"><tspan x="0" y="0">Log In</tspan></text>
    </g>
    <g id="Group_11" data-name="Group 11" transform="translate(160 48)">
      <path id="Path_28" data-name="Path 28" d="M0,0H137V40H0Z" transform="translate(1284)" fill="#307cff"/>
      <text id="Sign_In" data-name="Sign In" transform="translate(1319 29)" fill="#fff" font-size="21" font-family="Tahoma-Bold, Tahoma" font-weight="700"><tspan x="0" y="0">Sign In</tspan></text>
    </g>
    <g id="Component_2_2" data-name="Component 2 – 2" transform="translate(320 169)">
      <text id="ORIGINALS" transform="translate(0 22)" font-size="22" font-family="Tahoma-Bold, Tahoma" font-weight="700"><tspan x="0" y="0">ORIGINALS</tspan></text>
    </g>
    <rect id="Rectangle_65" data-name="Rectangle 65" width="1920" height="900" transform="translate(0 759)" fill="#f6f6f6"/>
    <g id="Component_30_2" data-name="Component 30 – 2" transform="translate(0 1659)">
      <rect id="Rectangle_42" data-name="Rectangle 42" width="1920" height="420" fill="#fff"/>
      <g id="Component_2_3" data-name="Component 2 – 3" transform="translate(425 153)">
        <text id="ORIGINALS-2" data-name="ORIGINALS" transform="translate(0 15)" font-size="15" font-family="Tahoma-Bold, Tahoma" font-weight="700"><tspan x="0" y="0">ORIGINALS</tspan></text>
      </g>
      <g id="Component_2_4" data-name="Component 2 – 4" transform="translate(901 153)">
        <text id="ABOUT" transform="translate(0 15)" font-size="15" font-family="Tahoma-Bold, Tahoma" font-weight="700"><tspan x="0" y="0">ABOUT</tspan></text>
      </g>
      <g id="Component_2_5" data-name="Component 2 – 5" transform="translate(1327 201)">
        <text id="PRIVACY_POLICY" data-name="PRIVACY POLICY" transform="translate(0 15)" font-size="15" font-family="Tahoma-Bold, Tahoma" font-weight="700"><tspan x="0" y="0">PRIVACY POLICY</tspan></text>
      </g>
      <g id="Component_3_3" data-name="Component 3 – 3" transform="translate(436 201)">
        <text id="FAN_ART-2" data-name="FAN ART" transform="translate(0 15)" font-size="15" font-family="Tahoma-Bold, Tahoma" font-weight="700"><tspan x="0" y="0">FAN ART</tspan></text>
      </g>
      <g id="Component_3_4" data-name="Component 3 – 4" transform="translate(878 201)">
        <text id="CONTACT_US" data-name="CONTACT US" transform="translate(0 15)" font-size="15" font-family="Tahoma-Bold, Tahoma" font-weight="700"><tspan x="0" y="0">CONTACT US</tspan></text>
      </g>
      <g id="Component_3_5" data-name="Component 3 – 5" transform="translate(1342 249)">
        <text id="COPYRIGHTS" transform="translate(0 15)" font-size="15" font-family="Tahoma-Bold, Tahoma" font-weight="700"><tspan x="0" y="0">COPYRIGHTS</tspan></text>
      </g>
      <g id="Component_4_3" data-name="Component 4 – 3" transform="translate(409 249)">
        <text id="READ_MANHWA" data-name="READ MANHWA" transform="translate(0 15)" font-size="15" font-family="Tahoma-Bold, Tahoma" font-weight="700"><tspan x="0" y="0">READ MANHWA</tspan></text>
      </g>
      <g id="Component_4_4" data-name="Component 4 – 4" transform="translate(911 249)">
        <text id="FAQ" transform="translate(0 15)" font-size="15" font-family="Tahoma-Bold, Tahoma" font-weight="700"><tspan x="0" y="0">FAQ</tspan></text>
      </g>
      <g id="Component_5_3" data-name="Component 5 – 3" transform="translate(420 297)">
        <text id="COMMUNITY" transform="translate(0 15)" font-size="15" font-family="Tahoma-Bold, Tahoma" font-weight="700"><tspan x="0" y="0">COMMUNITY</tspan></text>
      </g>
      <g id="Component_5_4" data-name="Component 5 – 4" transform="translate(871 297)">
        <text id="TERMS_OF_USE" data-name="TERMS OF USE" transform="translate(0 15)" font-size="15" font-family="Tahoma-Bold, Tahoma" font-weight="700"><tspan x="0" y="0">TERMS OF USE</tspan></text>
      </g>
      <g id="Group_8" data-name="Group 8" transform="translate(-27.5 -7263)">
        <g id="Group_7" data-name="Group 7" transform="translate(526 -44)">
          <path id="Path_3-2" data-name="Path 3" d="M35.907,109.752a21.888,21.888,0,0,0-2.349-2.939,5.188,5.188,0,0,0-.455-.4,2,2,0,0,1-.246-2.951,16.106,16.106,0,0,0,1.394-1.749A8.593,8.593,0,0,0,35.794,96.7a9.933,9.933,0,0,0-1.37-4.843,9.813,9.813,0,0,0-3.178-3.667,12.032,12.032,0,0,0-4.86-1.648,41.319,41.319,0,0,0-6.254-.475A34.447,34.447,0,0,0,7.892,88.19a17.073,17.073,0,0,0-5.947,3.677c-3.3,3.2-2.309,6.517,2.238,7.132l.2.025a2,2,0,0,0,1.289-.3q1.881-1.2,4.031-2.531A29.878,29.878,0,0,1,14.65,93.7a14.107,14.107,0,0,1,5.138-.964,12.681,12.681,0,0,1,5.9,1.476,1.82,1.82,0,0,1,1.067,1.7,4.91,4.91,0,0,1-1,2.651,9.732,9.732,0,0,1-2.066,2.3,9.454,9.454,0,0,1-3.042,1.363q-1.83.492-5.049,1.146-2.581.487-5.1,1.23h-.037a3.8,3.8,0,0,0-2.319,5.106,5.352,5.352,0,0,0,.671,1.151,4,4,0,0,0,3.308,1.67,5.283,5.283,0,0,0,1.6-.288,22.744,22.744,0,0,1,7.55-1.355q5.622,0,7.855,3.416a8.362,8.362,0,0,1,1.412,4.555,5.467,5.467,0,0,1-2.307,4.6A22.209,22.209,0,0,1,22.9,126.5a16.079,16.079,0,0,1-5.77.984,32.855,32.855,0,0,1-5.789-.61,9.449,9.449,0,0,1-3.308-1.363,38.833,38.833,0,0,1-3.273-2.9.492.492,0,0,0-.216-.091,1.419,1.419,0,0,0-.317,0,.115.115,0,0,0-.042,0A5.787,5.787,0,0,0,1.773,124.4a20.354,20.354,0,0,0-1.2,2.577,7.268,7.268,0,0,0-.121,4.137,1.535,1.535,0,0,0,.689.834c.327.17.662.325,1,.472a53.594,53.594,0,0,0,5.541,1.945,29.878,29.878,0,0,0,8.733,1.23,29.836,29.836,0,0,0,9.56-1.515,21.74,21.74,0,0,0,7.58-4.208,12.135,12.135,0,0,0,3.935-6.08,24.594,24.594,0,0,0,.893-6.2A13.065,13.065,0,0,0,35.907,109.752Z" transform="translate(256.001 7268.103)" fill="#231f20"/>
          <path id="Path_4-2" data-name="Path 4" d="M185.084,27.164a10.78,10.78,0,0,1,.755,5.275,18.693,18.693,0,0,1-1.183,4.978,13.982,13.982,0,0,1-3.785,5.44,18.891,18.891,0,0,1-5.762,3.379,44.464,44.464,0,0,1-7.646,2.046,45.23,45.23,0,0,1-8.2.762q-9.481,0-15-4.365a3.67,3.67,0,0,1-1.414-2.951,5.753,5.753,0,0,1,.7-2.624c.086-.17.18-.337.275-.492a3.239,3.239,0,0,1,3.63-1.476,16.932,16.932,0,0,1,2.088.716q2.213.915,4.388,1.793a14.7,14.7,0,0,0,4.331,1.053q3.443.231,4.078.231a21.667,21.667,0,0,0,6.2-1.124,48.25,48.25,0,0,0,5.108-1.852,12.118,12.118,0,0,0,3.977-2.784,5.443,5.443,0,0,0,1.476-3.7,6.181,6.181,0,0,0-.116-1.422q-.765-2.538-5.317-2.536a28.407,28.407,0,0,0-3.047.172q-1.608.172-3.906.475t-4.152.477q-1.852.172-3.48.172-1.414,0-3.308.152t-2.831.15a13,13,0,0,1-3.185-.359q-.649-.16-2.427-.384a7.531,7.531,0,0,1-2.846-.841,8.937,8.937,0,0,1-2.393-2.378A9.53,9.53,0,0,1,140,19.353a13.526,13.526,0,0,1,.492-3.487A21.98,21.98,0,0,1,146.3,8.178a37.557,37.557,0,0,1,9.3-5.472A33.264,33.264,0,0,1,161.569.664,32.582,32.582,0,0,1,167.823,0q3.775,0,6.225.246a19.99,19.99,0,0,1,4.877,1.144,24.61,24.61,0,0,1,4.557,2.324,2.213,2.213,0,0,1,1.043,1.869V5.6a5.873,5.873,0,0,1-.866,3.01,4.634,4.634,0,0,1-2.1,2.012,7.327,7.327,0,0,1-2.951.765,2.587,2.587,0,0,1-1.109-.216,4.447,4.447,0,0,1-.984-.657q-.519-.44-.984-.77a3.755,3.755,0,0,0-1.18-.534,30.945,30.945,0,0,0-8.084-1.124,23.916,23.916,0,0,0-8.345,1.392,19.223,19.223,0,0,0-5.962,3.313,7.262,7.262,0,0,0-2.558,3.443,6.494,6.494,0,0,0,.229,1.476,1.5,1.5,0,0,0,.952,1.168,25.4,25.4,0,0,0,8.733,1.291q2.334,0,6.982-.352t7.068-.354a26.675,26.675,0,0,1,5.9.59,9.244,9.244,0,0,1,3.2,2.169,10.846,10.846,0,0,1,1.815,2.976Q184.641,26.095,185.084,27.164Z" transform="translate(150.432 7333)" fill="#d1212a"/>
        </g>
        <text id="SSSMANGA-2" data-name="SSSMANGA" transform="translate(875 7345.35)" fill="#707070" font-size="56" font-family="PalatinoLinotype-Roman, Palatino Linotype"><tspan x="0" y="0">SSSMANGA</tspan></text>
      </g>
      <text id="_2021._All_right_reserved." data-name="© 2021. All right reserved." transform="translate(830 380)" fill="#010101" font-size="20" font-family="PalatinoLinotype-Roman, Palatino Linotype"><tspan x="0" y="0">© 2021. All right reserved.</tspan></text>
    </g>
    <rect id="Rectangle_68" data-name="Rectangle 68" width="1920" height="175" transform="translate(0 584)" fill="#e1e1e1"/>
    <g id="Group_46" data-name="Group 46">
      <rect id="Rectangle_66" data-name="Rectangle 66" width="1920" height="352" transform="translate(0 232)" fill="#aaa"/>
      <g id="add_img" transform="translate(900.139 325.6)">
        <rect id="Rectangle_2" data-name="Rectangle 2" width="227.04" height="127.2" rx="17.7" transform="translate(0 37.6)" fill="none" stroke="#000" stroke-miterlimit="10" stroke-width="10"/>
        <circle id="Ellipse_8" data-name="Ellipse 8" cx="40.21" cy="40.21" r="40.21" transform="translate(72.6 67.2)" fill="none" stroke="#000" stroke-miterlimit="10" stroke-width="10"/>
        <path id="Path_25" data-name="Path 25" d="M381.21,280.91h60.31a10,10,0,0,1,10,10v27.56H371.14V291a10.07,10.07,0,0,1,10.07-10.09Z" transform="translate(-298.54 -280.91)" fill="none" stroke="#000" stroke-miterlimit="10" stroke-width="10"/>
        <line id="Line_9" data-name="Line 9" x2="45.9" transform="translate(90.04 18.8)" fill="none" stroke="#000" stroke-miterlimit="10" stroke-width="10"/>
        <circle id="Ellipse_9" data-name="Ellipse 9" cx="14.18" cy="14.18" r="14.18" transform="translate(98.14 93)" fill="none" stroke="#000" stroke-miterlimit="10" stroke-width="10"/>
      </g>
    </g>
    <text id="The_Name_Here" data-name="The Name Here" transform="translate(529 562)" font-size="23" font-family="Tahoma-Bold, Tahoma" font-weight="700"><tspan x="0" y="0">The Name Here</tspan></text>
    <text id="_theUniqueUserNameHere" data-name="@theUniqueUserNameHere" transform="translate(529 615)" font-size="23" font-family="Tahoma-Bold, Tahoma" font-weight="700"><tspan x="0" y="0">@theUniqueUserNameHere</tspan></text>
    <g id="Group_43" data-name="Group 43" transform="translate(1285 592)">
      <rect id="Rectangle_67" data-name="Rectangle 67" width="144" height="46" rx="5" fill="#307cff"/>
      <text id="_Follow" data-name="+ Follow" transform="translate(24 31)" font-size="21" font-family="Tahoma-Bold, Tahoma" font-weight="700"><tspan x="0" y="0">+ Follow</tspan></text>
    </g>
    <g id="Group_44" data-name="Group 44" transform="translate(1455.95 592)">
      <rect id="Rectangle_67-2" data-name="Rectangle 67" width="144" height="46" rx="5" transform="translate(0.049)" fill="#32d632"/>
      <text id="_Tip" data-name="$ Tip" transform="translate(45.049 31)" font-size="21" font-family="Tahoma-Bold, Tahoma" font-weight="700"><tspan x="0" y="0">$ Tip</tspan></text>
    </g>
    <g id="Group_45" data-name="Group 45" transform="translate(320 487)">
      <g id="Ellipse_14" data-name="Ellipse 14" fill="#fff" stroke="#707070" stroke-width="1">
        <circle cx="92.5" cy="92.5" r="92.5" stroke="none"/>
        <circle cx="92.5" cy="92.5" r="92" fill="none"/>
      </g>
      <g id="user" transform="translate(57.83 41.782)">
        <circle id="Ellipse_7" data-name="Ellipse 7" cx="19.687" cy="19.687" r="19.687" transform="translate(15.236)" stroke="#000" stroke-miterlimit="10" stroke-width="10"/>
        <path id="Path_24" data-name="Path 24" d="M121.9,389.915h69.689V355.882a15.739,15.739,0,0,0-7.507-13.414,51.636,51.636,0,0,0-54.631,0,15.76,15.76,0,0,0-7.55,13.446Z" transform="translate(-121.9 -288.13)" stroke="#000" stroke-miterlimit="10" stroke-width="10"/>
      </g>
    </g>
    <g id="Group_47" data-name="Group 47" transform="translate(529 723)">
      <rect id="Rectangle_69" data-name="Rectangle 69" width="120" height="7" transform="translate(0 29)"/>
      <text id="ORIGINALS-3" data-name="ORIGINALS" transform="translate(0 20)" font-size="20" font-family="Tahoma-Bold, Tahoma" font-weight="700"><tspan x="0" y="0">ORIGINALS</tspan></text>
    </g>
    <g id="Group_49" data-name="Group 49" transform="translate(814.545 723)">
      <rect id="Rectangle_69-2" data-name="Rectangle 69" width="137" height="7" transform="translate(0.455 29)"/>
      <text id="WEB_COMICS" data-name="WEB COMICS" transform="translate(0.455 20)" font-size="20" font-family="Tahoma-Bold, Tahoma" font-weight="700"><tspan x="0" y="0">WEB COMICS</tspan></text>
    </g>
    <g id="Group_50" data-name="Group 50" transform="translate(988.818 723)">
      <rect id="Rectangle_69-3" data-name="Rectangle 69" width="133" height="7" transform="translate(0.182 29)"/>
      <text id="COMMUNITY-2" data-name="COMMUNITY" transform="translate(0.182 20)" font-size="20" font-family="Tahoma-Bold, Tahoma" font-weight="700"><tspan x="0" y="0">COMMUNITY</tspan></text>
    </g>
    <g id="Group_51" data-name="Group 51" transform="translate(1159 723)">
      <rect id="Rectangle_69-4" data-name="Rectangle 69" width="108" height="7" transform="translate(0 29)"/>
      <text id="ABOUT_ME" data-name="ABOUT ME" transform="translate(0 20)" font-size="20" font-family="Tahoma-Bold, Tahoma" font-weight="700"><tspan x="0" y="0">ABOUT ME</tspan></text>
    </g>
    <g id="Group_48" data-name="Group 48" transform="translate(686.091 723)">
      <rect id="Rectangle_69-5" data-name="Rectangle 69" width="92" height="7" transform="translate(-0.092 29)"/>
      <text id="FAN_ART-3" data-name="FAN ART" transform="translate(-0.09 20)" font-size="20" font-family="Tahoma-Bold, Tahoma" font-weight="700"><tspan x="0" y="0">FAN ART</tspan></text>
    </g>
  </g>
</svg>
